# xmcd
#
# Track frame offsets:
#	150
#	10707
#	24227
#	37107
#	47655
#	59032
#	69042
#	83310
#
# Disc length: 1346 seconds
#
# Revision: 1
# Processed by: cddbd v1.5.1PL0 Copyright (c) Steve Scherf et al.
# Submitted via: audiograbber 1.83.01
#
DISCID=54054008
DTITLE=Various Artist - Country Hits vol 3
DYEAR=1992
DGENRE=country
TTITLE0=Ferlin Husky - Wings of a Dove
TTITLE1=David Houston - Almost Persuaded
TTITLE2=Frankie Laine - Moonlight Gambler
TTITLE3=George Jones - Walk Through this World with Me
TTITLE4=Tom T. Hall - Fox on the Run
TTITLE5=Conway Twitty - It's Only Make Believe
TTITLE6=Slim Whitman - Beyond the Sunset
TTITLE7=Johhny Lee - Lookin' for Love
EXTD=
EXTT0=
EXTT1=
EXTT2=
EXTT3=
EXTT4=
EXTT5=
EXTT6=
EXTT7=
PLAYORDER=
